<svg xmlns="http://www.w3.org/2000/svg" viewBox="0 0 1600 1000" width="1600" height="1000"><defs><linearGradient id="cielo" x1="0" y1="0" x2="0" y2="1"><stop offset="0" stop-color="#0d2b5e"/><stop offset="1" stop-color="#071a3a"/></linearGradient>
  <radialGradient id="luz" cx=".5" cy=".5" r=".5"><stop offset="0" stop-color="#ffb347" stop-opacity=".55"/><stop offset="1" stop-color="#ffb347" stop-opacity="0"/></radialGradient></defs>
  <rect width="1600" height="1000" fill="url(#cielo)"/>
  <circle cx="1330" cy="190" r="672" fill="url(#luz)"/><defs>
  <linearGradient id="panel" x1="0" y1="0" x2="1" y2="1"><stop offset="0" stop-color="#2c63c9"/><stop offset=".55" stop-color="#173f93"/><stop offset="1" stop-color="#0d2b6e"/></linearGradient>
  <radialGradient id="sol" cx=".5" cy=".5" r=".5"><stop offset="0" stop-color="#fff3c4"/><stop offset=".45" stop-color="#ffc23d"/><stop offset="1" stop-color="#f0a500" stop-opacity="0"/></radialGradient>
  <filter id="brillo" x="-50%" y="-50%" width="200%" height="200%"><feGaussianBlur stdDeviation="6"/></filter>
  <filter id="brilloChico" x="-100%" y="-100%" width="300%" height="300%"><feGaussianBlur stdDeviation="2.2" result="b"/><feMerge><feMergeNode in="b"/><feMergeNode in="SourceGraphic"/></feMerge></filter>
  <filter id="halo" x="-100%" y="-100%" width="300%" height="300%"><feGaussianBlur stdDeviation="18"/></filter>
  
</defs><path d="M0 1000 L0 600 L0 560 L80 516.8 L160 503.8 L240 519.4 L320 535.1 L400 530.4 L480 517.6 L560 525.6 L640 564.3 L720 609.1 L800 626.5 L880 609.7 L960 584.3 L1040 577.4 L1120 586.1 L1200 583.1 L1280 551.4 L1360 508 L1440 487.2 L1520 503.7 L1600 536.9 L1600 1000Z" fill="#0f3163"/><path d="M0 1000 L0 640 L0 529.4 L80 536.4 L160 575.4 L240 615.1 L320 628.3 L400 620.4 L480 619.2 L560 639.6 L640 663.3 L720 659.6 L800 621.6 L880 576.5 L960 556.4 L1040 564.8 L1120 575.7 L1200 566.9 L1280 547.7 L1360 548.2 L1440 582.5 L1520 630.1 L1600 656 L1600 1000Z" fill="#0b2850"/><g><circle cx="1330" cy="190" r="168" fill="url(#sol)" opacity=".55"><animate attributeName="r" values="154;182;154" dur="5s" repeatCount="indefinite"/></circle>
  <circle cx="1330" cy="190" r="70" fill="#ffd36b"/><circle cx="1312.5" cy="172.5" r="38.5" fill="#ffe7a3"/></g><polygon points="353.5,474.2 880,778.2 880,744 353.5,440" fill="#1f4d33" /><polygon points="1406.5,474.2 880,778.2 880,744 1406.5,440" fill="#173d29" /><polygon points="880,136 1406.5,440 880,744 353.5,440" fill="#2f6b46" /><polyline points="353.5,440 880,744 1406.5,440" fill="none" stroke="#ffc23d" stroke-width="3" stroke-linejoin="round" filter="url(#brilloChico)"/><polygon points="666.1,620.5 771.4,681.3 771.4,680.2 666.1,619.4" fill="#b8bfc8" /><polygon points="929.4,590.1 771.4,681.3 771.4,680.2 929.4,589" fill="#a3abb5" /><polygon points="824.1,528.2 929.4,589 771.4,680.2 666.1,619.4" fill="#cfd5dc" /><polygon points="852.4,215.8 860.3,220.4 860.3,171 852.4,166.4" fill="#6b4f36" /><polygon points="868.2,215.8 860.3,220.4 860.3,171 868.2,166.4" fill="#5a4230" /><polygon points="860.3,161.8 868.2,166.4 860.3,171 852.4,166.4" fill="#7a5a3c" /><circle cx="860.3" cy="121.9" r="49.4" fill="#3f8a4a"/><circle cx="847.9" cy="109.6" r="30.6" fill="#57a85f"/><polygon points="1247.3,421 1255.2,425.6 1255.2,376.2 1247.3,371.6" fill="#6b4f36" /><polygon points="1263.1,421 1255.2,425.6 1255.2,376.2 1263.1,371.6" fill="#5a4230" /><polygon points="1255.2,367 1263.1,371.6 1255.2,376.2 1247.3,371.6" fill="#7a5a3c" /><circle cx="1255.2" cy="334" r="41.8" fill="#4a8f3c"/><circle cx="1244.7" cy="323.5" r="25.9" fill="#68ad55"/><polygon points="672.7,388.7 903,521.7 903,400.1 672.7,267.1" fill="#eef2f7" /><polygon points="1067.6,426.7 903,521.7 903,400.1 1067.6,305.1" fill="#c9d2de" /><polygon points="837.2,172.1 1067.6,305.1 903,400.1 672.7,267.1" fill="#ffffff" /><polygon points="672.7,388.7 738.5,426.7 738.5,305.1 672.7,267.1" fill="#a8774c" /><line x1="683.5" y1="395" x2="683.5" y2="273.4" stroke="rgba(0,0,0,.12)" stroke-width="1.2" stroke-linecap="round" /><line x1="694.4" y1="401.2" x2="694.4" y2="279.6" stroke="rgba(0,0,0,.12)" stroke-width="1.2" stroke-linecap="round" /><line x1="705.3" y1="407.5" x2="705.3" y2="285.9" stroke="rgba(0,0,0,.12)" stroke-width="1.2" stroke-linecap="round" /><line x1="716.1" y1="413.8" x2="716.1" y2="292.2" stroke="rgba(0,0,0,.12)" stroke-width="1.2" stroke-linecap="round" /><line x1="727" y1="420.1" x2="727" y2="298.5" stroke="rgba(0,0,0,.12)" stroke-width="1.2" stroke-linecap="round" /><polygon points="689.1,398.2 718.7,415.3 718.7,327.9 689.1,310.8" fill="#3a2a1e" /><polygon points="758.2,419.1 883.3,491.3 883.3,403.9 758.2,331.7" fill="#9cc3ea" /><line x1="799.4" y1="442.9" x2="799.4" y2="355.5" stroke="#2b2f36" stroke-width="2" stroke-linecap="round" /><line x1="840.5" y1="466.6" x2="840.5" y2="379.2" stroke="#2b2f36" stroke-width="2" stroke-linecap="round" /><polygon points="764.8,343.1 784.6,354.5 768.1,417.2 758.2,411.5" fill="rgba(255,255,255,.35)" /><polygon points="1041.3,388.7 982,422.9 982,377.3 1041.3,343.1" fill="#9cc3ea" /><polygon points="1067.6,305.1 1067.6,259.5 903,398.2 903,400.1" fill="#c9d2de" /><polygon points="643.1,263.3 899.7,411.5 899.7,419.9 643.1,271.7" fill="#2b3442" /><polygon points="1093.9,255.7 899.7,411.5 899.7,419.9 1093.9,264.1" fill="#1f2733" /><polygon points="837.2,107.5 1093.9,255.7 899.7,411.5 643.1,263.3" fill="#3a4556" /><polygon points="712.3,251 747,271.1 810.8,221.2 776,201.2" fill="url(#panel)" stroke="#dfe7f2" stroke-width="1.6"/><line x1="723.9" y1="257.7" x2="787.6" y2="207.9" stroke="rgba(255,255,255,.18)" stroke-width="1"/><line x1="735.5" y1="264.4" x2="799.2" y2="214.6" stroke="rgba(255,255,255,.18)" stroke-width="1"/><line x1="744.2" y1="226.1" x2="778.9" y2="246.2" stroke="rgba(255,255,255,.18)" stroke-width="1"/><polygon points="784.7,194.4 819.4,214.5 883.2,164.6 848.4,144.6" fill="url(#panel)" stroke="#dfe7f2" stroke-width="1.6"/><line x1="796.3" y1="201.1" x2="860" y2="151.3" stroke="rgba(255,255,255,.18)" stroke-width="1"/><line x1="807.9" y1="207.8" x2="871.6" y2="157.9" stroke="rgba(255,255,255,.18)" stroke-width="1"/><line x1="816.6" y1="169.5" x2="851.3" y2="189.5" stroke="rgba(255,255,255,.18)" stroke-width="1"/><polygon points="751.8,273.8 786.5,293.9 850.3,244 815.5,224" fill="url(#panel)" stroke="#dfe7f2" stroke-width="1.6"/><line x1="763.4" y1="280.5" x2="827.1" y2="230.7" stroke="rgba(255,255,255,.18)" stroke-width="1"/><line x1="775" y1="287.2" x2="838.7" y2="237.4" stroke="rgba(255,255,255,.18)" stroke-width="1"/><line x1="783.6" y1="248.9" x2="818.4" y2="269" stroke="rgba(255,255,255,.18)" stroke-width="1"/><polygon points="824.2,217.2 858.9,237.3 922.7,187.4 887.9,167.4" fill="url(#panel)" stroke="#dfe7f2" stroke-width="1.6"/><line x1="835.8" y1="223.9" x2="899.5" y2="174.1" stroke="rgba(255,255,255,.18)" stroke-width="1"/><line x1="847.4" y1="230.6" x2="911.1" y2="180.7" stroke="rgba(255,255,255,.18)" stroke-width="1"/><line x1="856" y1="192.3" x2="890.8" y2="212.3" stroke="rgba(255,255,255,.18)" stroke-width="1"/><polygon points="791.3,296.6 826,316.7 889.7,266.8 855,246.8" fill="url(#panel)" stroke="#dfe7f2" stroke-width="1.6"/><line x1="802.9" y1="303.3" x2="866.6" y2="253.5" stroke="rgba(255,255,255,.18)" stroke-width="1"/><line x1="814.4" y1="310" x2="878.2" y2="260.2" stroke="rgba(255,255,255,.18)" stroke-width="1"/><line x1="823.1" y1="271.7" x2="857.9" y2="291.8" stroke="rgba(255,255,255,.18)" stroke-width="1"/><polygon points="863.7,240 898.4,260.1 962.1,210.2 927.4,190.2" fill="url(#panel)" stroke="#dfe7f2" stroke-width="1.6"/><line x1="875.3" y1="246.7" x2="939" y2="196.9" stroke="rgba(255,255,255,.18)" stroke-width="1"/><line x1="886.8" y1="253.4" x2="950.6" y2="203.5" stroke="rgba(255,255,255,.18)" stroke-width="1"/><line x1="895.5" y1="215.1" x2="930.3" y2="235.1" stroke="rgba(255,255,255,.18)" stroke-width="1"/><polygon points="830.8,319.4 865.5,339.5 929.2,289.6 894.5,269.6" fill="url(#panel)" stroke="#dfe7f2" stroke-width="1.6"/><line x1="842.4" y1="326.1" x2="906.1" y2="276.3" stroke="rgba(255,255,255,.18)" stroke-width="1"/><line x1="853.9" y1="332.8" x2="917.6" y2="283" stroke="rgba(255,255,255,.18)" stroke-width="1"/><line x1="862.6" y1="294.5" x2="897.4" y2="314.6" stroke="rgba(255,255,255,.18)" stroke-width="1"/><polygon points="903.2,262.8 937.9,282.9 1001.6,233 966.9,213" fill="url(#panel)" stroke="#dfe7f2" stroke-width="1.6"/><line x1="914.8" y1="269.5" x2="978.5" y2="219.7" stroke="rgba(255,255,255,.18)" stroke-width="1"/><line x1="926.3" y1="276.2" x2="990" y2="226.3" stroke="rgba(255,255,255,.18)" stroke-width="1"/><line x1="935" y1="237.9" x2="969.8" y2="257.9" stroke="rgba(255,255,255,.18)" stroke-width="1"/><polygon points="870.3,342.2 905,362.3 968.7,312.4 934,292.4" fill="url(#panel)" stroke="#dfe7f2" stroke-width="1.6"/><line x1="881.8" y1="348.9" x2="945.6" y2="299.1" stroke="rgba(255,255,255,.18)" stroke-width="1"/><line x1="893.4" y1="355.6" x2="957.1" y2="305.8" stroke="rgba(255,255,255,.18)" stroke-width="1"/><line x1="902.1" y1="317.3" x2="936.9" y2="337.4" stroke="rgba(255,255,255,.18)" stroke-width="1"/><polygon points="942.7,285.6 977.4,305.7 1041.1,255.8 1006.4,235.8" fill="url(#panel)" stroke="#dfe7f2" stroke-width="1.6"/><line x1="954.2" y1="292.3" x2="1018" y2="242.5" stroke="rgba(255,255,255,.18)" stroke-width="1"/><line x1="965.8" y1="299" x2="1029.5" y2="249.1" stroke="rgba(255,255,255,.18)" stroke-width="1"/><line x1="974.5" y1="260.7" x2="1009.3" y2="280.7" stroke="rgba(255,255,255,.18)" stroke-width="1"/><polygon points="935.9,457.1 944.2,461.9 944.2,435.3 935.9,430.5" fill="#c3cad3" /><polygon points="960.6,452.4 944.2,461.9 944.2,435.3 960.6,425.8" fill="#aab2bd" /><polygon points="952.4,421 960.6,425.8 944.2,435.3 935.9,430.5" fill="#dfe4ea" /><polygon points="956.7,441.3 948.1,446.3 948.1,438.7 956.7,433.7" fill="#3dff8a" filter="url(#brilloChico)"/><polygon points="1172.9,516 1182.8,521.7 1182.8,255.7 1172.9,250" fill="#cfc9bc" /><polygon points="1192.6,516 1182.8,521.7 1182.8,255.7 1192.6,250" fill="#b3ad9f" /><polygon points="1182.8,244.3 1192.6,250 1182.8,255.7 1172.9,250" fill="#e3ded3" /><polygon points="1142.6,283.8 1150.5,288.4 1150.5,280.8 1142.6,276.2" fill="#6f7a86" /><polygon points="1222.9,246.6 1150.5,288.4 1150.5,280.8 1222.9,239" fill="#5b6571" /><polygon points="1215,234.4 1222.9,239 1150.5,280.8 1142.6,276.2" fill="#7d8894" /><polygon points="1207.1,240.5 1212.4,243.5 1212.4,230.2 1207.1,227.2" fill="#a4552e" /><polygon points="1217.6,240.5 1212.4,243.5 1212.4,230.2 1217.6,227.2" fill="#8a4524" /><polygon points="1212.4,224.2 1217.6,227.2 1212.4,230.2 1207.1,227.2" fill="#c26a3c" /><polygon points="1177.5,257.6 1182.8,260.6 1182.8,247.3 1177.5,244.3" fill="#a4552e" /><polygon points="1188,257.6 1182.8,260.6 1182.8,247.3 1188,244.3" fill="#8a4524" /><polygon points="1182.8,241.3 1188,244.3 1182.8,247.3 1177.5,244.3" fill="#c26a3c" /><polygon points="1147.9,274.7 1153.1,277.7 1153.1,264.4 1147.9,261.4" fill="#a4552e" /><polygon points="1158.4,274.7 1153.1,277.7 1153.1,264.4 1158.4,261.4" fill="#8a4524" /><polygon points="1153.1,258.4 1158.4,261.4 1153.1,264.4 1147.9,261.4" fill="#c26a3c" /><path d="M1179.9 351.7 L1179.9 306 L1221.8 306 L1221.8 351.7 A20.9 12.1 0 0 1 1179.9 351.7Z" fill="#8f9aa7"/><path d="M1179.9 351.7 L1179.9 306 L1200.9 306 L1200.9 363.7 A20.9 12.1 0 0 1 1179.9 351.7Z" fill="#b7c0cb"/><ellipse cx="1200.9" cy="306" rx="20.9" ry="12.1" fill="#d3d9e1"/><path d="M1212.4 231 Q1465.8 73.3 1719.2 -120.5" fill="none" stroke="#1a1f27" stroke-width="2.4"/><path d="M1182.8 248.1 Q1436.2 90.4 1689.6 -103.4" fill="none" stroke="#1a1f27" stroke-width="2.4"/><path d="M1153.1 265.2 Q1406.5 107.5 1659.9 -86.3" fill="none" stroke="#1a1f27" stroke-width="2.4"/><path d="M1182.8 276.6 Q1066.8 358.5 950.8 412.5" fill="none" stroke="#1a1f27" stroke-width="2"/><polygon points="503.5,402 511.4,406.6 511.4,357.2 503.5,352.6" fill="#6b4f36" /><polygon points="519.3,402 511.4,406.6 511.4,357.2 519.3,352.6" fill="#5a4230" /><polygon points="511.4,348 519.3,352.6 511.4,357.2 503.5,352.6" fill="#7a5a3c" /><circle cx="511.4" cy="315" r="41.8" fill="#2f7a45"/><circle cx="501" cy="304.5" r="25.9" fill="#4c9b5a"/><path d="M899.7 246.2 L988.6 343.1 L950.8 442.9" fill="none" stroke="#ffc23d" stroke-width="7" stroke-opacity=".22" filter="url(#brillo)"/><path d="M899.7 246.2 L988.6 343.1 L950.8 442.9" fill="none" stroke="#ffc23d" stroke-width="2.4" stroke-dasharray="2 12" stroke-linecap="round"><animate attributeName="stroke-dashoffset" from="28" to="0" dur="1s" repeatCount="indefinite"/></path><g><animateMotion dur="2.4s" begin="0s" repeatCount="indefinite" path="M899.7 246.2 L988.6 343.1 L950.8 442.9"/><circle r="11" fill="#ffc23d" opacity=".28"/><circle r="5" fill="#ffc23d"/></g><g><animateMotion dur="2.4s" begin="-0.8s" repeatCount="indefinite" path="M899.7 246.2 L988.6 343.1 L950.8 442.9"/><circle r="11" fill="#ffc23d" opacity=".28"/><circle r="5" fill="#ffc23d"/></g><g><animateMotion dur="2.4s" begin="-1.6s" repeatCount="indefinite" path="M899.7 246.2 L988.6 343.1 L950.8 442.9"/><circle r="11" fill="#ffc23d" opacity=".28"/><circle r="5" fill="#ffc23d"/></g><path d="M950.8 412.5 Q1066.8 358.5 1182.8 276.6" fill="none" stroke="#ffc23d" stroke-width="7" stroke-opacity=".22" filter="url(#brillo)"/><path d="M950.8 412.5 Q1066.8 358.5 1182.8 276.6" fill="none" stroke="#ffc23d" stroke-width="2.4" stroke-dasharray="2 12" stroke-linecap="round"><animate attributeName="stroke-dashoffset" from="28" to="0" dur="1s" repeatCount="indefinite"/></path><g><animateMotion dur="2.2s" begin="0s" repeatCount="indefinite" path="M950.8 412.5 Q1066.8 358.5 1182.8 276.6"/><circle r="11" fill="#ffc23d" opacity=".28"/><circle r="5" fill="#ffc23d"/></g><g><animateMotion dur="2.2s" begin="-0.7s" repeatCount="indefinite" path="M950.8 412.5 Q1066.8 358.5 1182.8 276.6"/><circle r="11" fill="#ffc23d" opacity=".28"/><circle r="5" fill="#ffc23d"/></g><g><animateMotion dur="2.2s" begin="-1.5s" repeatCount="indefinite" path="M950.8 412.5 Q1066.8 358.5 1182.8 276.6"/><circle r="11" fill="#ffc23d" opacity=".28"/><circle r="5" fill="#ffc23d"/></g><path d="M1182.8 248.1 L1689.6 -103.4" fill="none" stroke="#ffc23d" stroke-width="7" stroke-opacity=".22" filter="url(#brillo)"/><path d="M1182.8 248.1 L1689.6 -103.4" fill="none" stroke="#ffc23d" stroke-width="2.4" stroke-dasharray="2 12" stroke-linecap="round"><animate attributeName="stroke-dashoffset" from="28" to="0" dur="1s" repeatCount="indefinite"/></path><g><animateMotion dur="3.6s" begin="0s" repeatCount="indefinite" path="M1182.8 248.1 L1689.6 -103.4"/><circle r="11" fill="#ffc23d" opacity=".28"/><circle r="5" fill="#ffc23d"/></g><g><animateMotion dur="3.6s" begin="-0.6s" repeatCount="indefinite" path="M1182.8 248.1 L1689.6 -103.4"/><circle r="11" fill="#ffc23d" opacity=".28"/><circle r="5" fill="#ffc23d"/></g><g><animateMotion dur="3.6s" begin="-1.2s" repeatCount="indefinite" path="M1182.8 248.1 L1689.6 -103.4"/><circle r="11" fill="#ffc23d" opacity=".28"/><circle r="5" fill="#ffc23d"/></g><g><animateMotion dur="3.6s" begin="-1.8s" repeatCount="indefinite" path="M1182.8 248.1 L1689.6 -103.4"/><circle r="11" fill="#ffc23d" opacity=".28"/><circle r="5" fill="#ffc23d"/></g><g><animateMotion dur="3.6s" begin="-2.4s" repeatCount="indefinite" path="M1182.8 248.1 L1689.6 -103.4"/><circle r="11" fill="#ffc23d" opacity=".28"/><circle r="5" fill="#ffc23d"/></g><g><animateMotion dur="3.6s" begin="-3s" repeatCount="indefinite" path="M1182.8 248.1 L1689.6 -103.4"/><circle r="11" fill="#ffc23d" opacity=".28"/><circle r="5" fill="#ffc23d"/></g></svg>